<svg xmlns="http://www.w3.org/2000/svg" viewBox="0 0 60.11 55.15"><defs><style>.cls-1{fill:#fff;}</style></defs><title>add_to_lsit</title><g id="图层_2" data-name="图层 2"><g id="图层_1-2" data-name="图层 1"><path class="cls-1" d="M43.58,0A18,18,0,0,0,30.05,6.28,18,18,0,0,0,16.53,0,16.37,16.37,0,0,0,0,16.53C0,27.89,10.22,37.15,25.7,51.21l4.36,3.94,4.36-4c15.48-14,25.7-23.29,25.7-34.65A16.37,16.37,0,0,0,43.58,0ZM30.35,46.74l-.3.3-.3-.3C15.45,33.78,6,25.22,6,16.53A10.27,10.27,0,0,1,16.53,6,11.75,11.75,0,0,1,27.26,13.1h5.62A11.68,11.68,0,0,1,43.58,6,10.27,10.27,0,0,1,54.1,16.53C54.1,25.22,44.66,33.78,30.35,46.74Z"/></g></g></svg>