<?xml version="1.0" encoding="utf-8"?>
<!-- Generator: Adobe Illustrator 16.0.0, SVG Export Plug-In . SVG Version: 6.00 Build 0)  -->
<!DOCTYPE svg PUBLIC "-//W3C//DTD SVG 1.1//EN" "http://www.w3.org/Graphics/SVG/1.1/DTD/svg11.dtd">
<svg version="1.1" id="Layer_1" xmlns="http://www.w3.org/2000/svg" xmlns:xlink="http://www.w3.org/1999/xlink" x="0px" y="0px"
	 width="2383.939px" height="3370.39px" viewBox="0 0 2383.939 3370.39" enable-background="new 0 0 2383.939 3370.39"
	 xml:space="preserve">
<title>batches_white_hover</title>
<g id="图层_2">
	<g id="图层_1-2">
		<path fill="#FFC41F" d="M0,1884.287v369.148c90.776,55.805,189.297,97.893,292.374,124.904L245.037,2565.3
			c-27.273,94.795,27.464,193.752,122.261,221.027c94.796,27.273,193.753-27.465,221.026-122.262
			c1.221-4.24,2.283-8.525,3.186-12.844l50.121-198.895c182.753,25.898,367.155,38.396,551.731,37.393
			c183.915,0.988,367.655-11.51,549.742-37.393l50.121,198.895c24.056,95.785,121.208,153.934,216.993,129.877
			s153.934-121.207,129.877-216.992l0,0l-47.734-188.154c102.679-26.311,200.925-67.592,291.578-122.518V821.399
			c0,0-332.152-238.672-1190.577-238.672S0,821.399,0,821.399v943.155 M119.337,889.421c61.21-29.491,124.655-54.099,189.744-73.59
			c46.144-14.32,102.231-29.834,167.469-44.154v223.158c-156.331,20.686-285.611,42.166-358.009,54.497L119.337,889.421z
			 M477.345,1114.171v361.589H119.337v-306.296c62.055-9.945,193.722-32.619,358.009-54.497V1114.171z M119.337,1595.892h358.009
			v361.588c-164.287-22.275-295.954-44.154-358.009-55.293V1595.892z M119.337,2182.23v-159.115
			c71.999,12.73,201.28,34.211,358.009,54.498v223.557c-52.906-11.537-103.425-24.664-151.16-39.779
			C255.114,2240.921,185.915,2214.439,119.337,2182.23z M477.345,2623.376c-8.02,31.965-40.433,51.377-72.397,43.359
			c-31.966-8.02-51.378-40.434-43.359-72.398l46.939-186.959c36.065,8.75,74.916,17.104,116.552,25.061L477.345,2623.376z
			 M716.017,2342.14l-39.778-5.568l-79.558-11.934V748.207c37.392-6.365,77.171-12.332,119.336-17.9V2342.14z M1551.371,2354.871
			c-106.209,9.547-225.147,15.514-358.009,15.514c-124.507,0-244.241-5.172-358.009-15.514v-238.674
			c119.337,9.547,241.855,15.912,358.009,15.912s238.673-6.365,358.009-15.912V2354.871z M1551.371,1996.861
			c-119.336,9.945-241.855,16.311-358.009,16.311s-238.672-6.365-358.009-16.311v-400.969h716.018V1996.861z M1551.371,1476.953
			H835.353v-400.97c119.337-9.944,241.855-16.309,358.009-16.309s238.673,6.364,358.009,16.309V1476.953z M1551.371,956.25
			c-119.336-9.547-241.457-15.912-358.009-15.912s-238.672,6.365-358.009,15.912V717.577l0,0
			c105.016-9.944,223.955-15.514,358.009-15.514c124.508,0,244.241,5.171,358.009,15.514V956.25z M1790.043,2324.24
			L1790.043,2324.24c-37.392,6.365-77.17,12.332-119.336,17.9V730.307l39.779,5.569l79.557,12.331V2324.24z M1983.368,2666.736
			c-31.745,8.844-64.649-9.719-73.494-41.465c-0.175-0.629-0.34-1.26-0.494-1.895l-48.53-190.938
			c41.635-7.957,80.485-16.311,116.552-25.061l46.938,187.357c7.77,31.834-11.587,63.977-43.358,72H1983.368z M2266.99,2182.23
			c-61.18,29.777-124.627,54.65-189.744,74.387c-46.144,14.32-102.231,29.834-167.866,44.154v-223.158
			c156.33-20.686,285.611-42.166,358.009-54.498v159.115H2266.99z M2266.99,1903.779c-62.055,11.139-193.723,33.813-358.008,55.293
			v-363.18h358.008V1903.779z M2266.99,1478.544h-358.008v-363.577c163.888,21.878,295.556,44.552,358.008,55.69V1478.544z
			 M2266.99,1051.321c-71.602-12.729-200.883-33.813-358.008-54.497V771.278c52.905,11.536,103.424,24.663,151.158,39.779
			c70.943,20.633,140.008,47.247,206.452,79.557L2266.99,1051.321z"/>
	</g>
</g>
</svg>
