<?xml version="1.0" encoding="utf-8"?>
<!-- Generator: Adobe Illustrator 16.0.0, SVG Export Plug-In . SVG Version: 6.00 Build 0)  -->
<!DOCTYPE svg PUBLIC "-//W3C//DTD SVG 1.1//EN" "http://www.w3.org/Graphics/SVG/1.1/DTD/svg11.dtd">
<svg version="1.1" id="Layer_1" xmlns="http://www.w3.org/2000/svg" xmlns:xlink="http://www.w3.org/1999/xlink" x="0px" y="0px"
	 width="2383.939px" height="3370.39px" viewBox="0 0 2383.939 3370.39" enable-background="new 0 0 2383.939 3370.39"
	 xml:space="preserve">
<title>discovery_white_hover</title>
<g id="图层_2">
	<g id="图层_1-2">
		<path fill="#FFC41F" d="M1191.97,1554.078c-72.414,0-131.117,58.703-131.117,131.116c0,72.415,58.703,131.118,131.117,131.118
			c72.413,0,131.116-58.703,131.116-131.118l0,0c0.22-72.193-58.127-130.896-130.321-131.116
			C1192.501,1554.077,1192.235,1554.077,1191.97,1554.078z M1191.97,493.226C533.664,493.226,0,1026.888,0,1685.194
			S533.664,2877.166,1191.97,2877.166s1191.969-533.664,1191.969-1191.971S1850.277,493.226,1191.97,493.226z M1453.011,1946.236
			l-976.224,454.141l454.141-976.223l976.224-454.141L1453.011,1946.236z"/>
	</g>
</g>
</svg>
