<?xml version="1.0" encoding="utf-8"?>
<!-- Generator: Adobe Illustrator 16.0.0, SVG Export Plug-In . SVG Version: 6.00 Build 0)  -->
<!DOCTYPE svg PUBLIC "-//W3C//DTD SVG 1.1//EN" "http://www.w3.org/Graphics/SVG/1.1/DTD/svg11.dtd">
<svg version="1.1" id="Layer_1" xmlns="http://www.w3.org/2000/svg" xmlns:xlink="http://www.w3.org/1999/xlink" x="0px" y="0px"
	 width="2383.939px" height="3370.39px" viewBox="0 0 2383.939 3370.39" enable-background="new 0 0 2383.939 3370.39"
	 xml:space="preserve">
<title>list_white_hover</title>
<g id="图层_2">
	<g id="图层_1-2">
		<path fill="#FFC41F" d="M193.485,1491.908c-106.641,0.218-192.912,86.844-192.693,193.484
			c0.219,106.64,86.845,192.912,193.484,192.693c106.485-0.219,192.693-86.604,192.694-193.088
			c0-106.641-86.449-193.09-193.09-193.09C193.749,1491.907,193.617,1491.907,193.485,1491.908z M193.485,718.76
			c-106.641,0-193.09,86.449-193.09,193.089c0,106.641,86.449,193.09,193.09,193.09s193.089-86.449,193.089-193.09
			C386.574,805.209,300.126,718.76,193.485,718.76L193.485,718.76z M193.485,2265.056C86.844,2265.06,0.398,2351.511,0.402,2458.152
			s86.456,193.086,193.096,193.082c106.021-0.004,192.207-85.49,193.076-191.506c0.438-107.076-86.01-194.234-193.086-194.672
			C193.487,2265.056,193.486,2265.056,193.485,2265.056z M580.059,2587.134h1803.88V2329.55H580.059V2587.134z M580.059,1813.988
			h1803.88v-257.585H580.059V1813.988z M580.059,783.255v257.584h1803.88V783.255H580.059z"/>
	</g>
</g>
</svg>
