<svg xmlns="http://www.w3.org/2000/svg" viewBox="0 0 48.64 50"><defs><style>.cls-1{fill:#bf6000;}</style></defs><title>setting</title><g id="图层_2" data-name="图层 2"><g id="图层_1-2" data-name="图层 1"><path id="settings" class="cls-1" d="M42.9,27.45A19.48,19.48,0,0,0,43.07,25a19.48,19.48,0,0,0-.18-2.45l5.28-4.12a1.26,1.26,0,0,0,.3-1.6l-5-8.65a1.26,1.26,0,0,0-1.52-.55l-6.23,2.5A18.27,18.27,0,0,0,31.5,7.68l-.95-6.62a1.22,1.22,0,0,0-1.23-1h-10A1.22,1.22,0,0,0,18.1,1.05l-.95,6.63a19.21,19.21,0,0,0-4.23,2.45L6.7,7.63a1.22,1.22,0,0,0-1.53.55l-5,8.65a1.23,1.23,0,0,0,.3,1.6l5.28,4.13A19.83,19.83,0,0,0,5.57,25a19.83,19.83,0,0,0,.17,2.45L.47,31.58a1.26,1.26,0,0,0-.3,1.6l5,8.65a1.26,1.26,0,0,0,1.53.55l6.23-2.5a18.27,18.27,0,0,0,4.23,2.45L18.1,49a1.22,1.22,0,0,0,1.22,1h10a1.22,1.22,0,0,0,1.23-1l.95-6.62a19.21,19.21,0,0,0,4.23-2.45l6.23,2.5a1.22,1.22,0,0,0,1.52-.55l5-8.65a1.26,1.26,0,0,0-.3-1.6Zm-18.57,6.3A8.75,8.75,0,1,1,33.07,25,8.76,8.76,0,0,1,24.32,33.75Z"/></g></g></svg>